<svg width="1109" height="144" viewBox="0 0 1109 144" fill="none" xmlns="http://www.w3.org/2000/svg">
<path d="M0 0V143.12H194.47V0H0ZM171.53 118.65C168.39 119.94 162.39 120.96 156.66 120.96C137.64 120.96 128.77 112.19 128.77 92.43V79.09H107.27V79.06C107.27 106.14 90.37 120.96 66.83 120.96C40.61 120.96 23.62 100.83 23.62 71.37C23.62 41.91 39.59 22.15 67.02 22.15C89.55 22.15 104.51 35.91 106.91 57.15H85.4C84.02 46.35 76.72 40.53 67.12 40.53C53.64 40.53 45.7 53.09 45.7 71.37C45.7 89.65 53.46 102.58 67.03 102.58C80.6 102.58 85.68 91.11 85.68 79.06H107.29V57.21H128.79V22.16H150.95V57.21H128.79V79.09H150.58V90.58C150.58 99.91 154.74 102.68 161.75 102.68C166.09 102.68 169.41 101.85 171.54 101.11V118.65H171.53Z" fill="white"/>
<path d="M283.934 40.6296C288.074 38.0596 292.884 36.7696 298.364 36.7696C303.844 36.7696 308.794 38.2396 312.734 41.1896C316.674 44.1296 319.434 47.8396 321.004 52.3196L338.044 44.1096C336.474 39.5496 333.814 35.3996 330.084 31.6696C326.354 27.9396 321.814 24.9496 316.464 22.7096C311.114 20.4696 305.084 19.3496 298.364 19.3496C291.644 19.3496 285.444 20.5296 279.764 22.8996C274.084 25.2596 269.134 28.5796 264.904 32.8496C260.674 37.1196 257.394 42.1796 255.074 48.0296C252.754 53.8796 251.594 60.2396 251.594 67.1196C251.594 73.9996 252.774 80.3496 255.134 86.1496C257.494 91.9596 260.794 97.0196 265.024 101.33C269.254 105.64 274.204 109 279.884 111.4C285.564 113.8 291.724 115.01 298.354 115.01C304.984 115.01 311.104 113.89 316.454 111.65C321.804 109.41 326.344 106.43 330.074 102.69C333.804 98.9596 336.464 94.8096 338.034 90.2496L320.994 82.0396C319.414 86.5196 316.664 90.2296 312.724 93.1696C308.784 96.1196 303.994 97.5896 298.354 97.5896C292.714 97.5896 288.074 96.3096 283.924 93.7296C279.774 91.1596 276.564 87.5896 274.284 83.0296C272.004 78.4696 270.864 73.1596 270.864 67.1096C270.864 61.0596 272.004 55.7696 274.284 51.2496C276.564 46.7296 279.774 43.1896 283.924 40.6196L283.934 40.6296Z" fill="white"/>
<path d="M399.365 110.409C404.835 107.339 409.215 103.129 412.485 97.7794C415.755 92.4294 417.395 86.3594 417.395 79.5594C417.395 72.7594 415.755 66.5794 412.485 61.2694C409.205 55.9594 404.835 51.7794 399.365 48.7094C393.895 45.6394 387.795 44.1094 381.075 44.1094C374.355 44.1094 368.245 45.6494 362.725 48.7094C357.205 51.7794 352.815 55.9694 349.535 61.2694C346.255 66.5794 344.625 72.6694 344.625 79.5594C344.625 86.4494 346.265 92.4294 349.535 97.7794C352.805 103.129 357.205 107.339 362.725 110.409C368.235 113.479 374.355 115.009 381.075 115.009C387.795 115.009 393.885 113.479 399.365 110.409ZM366.095 89.2694C364.645 86.4494 363.915 83.2194 363.915 79.5694C363.915 75.9194 364.645 72.7094 366.095 69.9294C367.545 67.1494 369.555 64.9494 372.125 63.3394C374.695 61.7194 377.675 60.9094 381.085 60.9094C384.495 60.9094 387.445 61.7194 389.975 63.3394C392.505 64.9594 394.495 67.1594 395.945 69.9294C397.395 72.7094 398.125 75.9194 398.125 79.5694C398.125 83.2194 397.395 86.4494 395.945 89.2694C394.495 92.0894 392.505 94.2894 389.975 95.8594C387.445 97.4394 384.485 98.2194 381.085 98.2194C377.685 98.2194 374.695 97.4294 372.125 95.8594C369.555 94.2894 367.545 92.0894 366.095 89.2694Z" fill="white"/>
<path d="M446.637 19.3594H427.977V113.519H446.637V19.3594Z" fill="white"/>
<path d="M525.055 97.7891C528.325 92.4391 529.965 86.3692 529.965 79.5692C529.965 72.7692 528.325 66.5891 525.055 61.2791C521.775 55.9691 517.405 51.7891 511.935 48.7191C506.465 45.6491 500.365 44.1191 493.645 44.1191C486.925 44.1191 480.815 45.6591 475.295 48.7191C469.775 51.7891 465.385 55.9791 462.105 61.2791C458.825 66.5891 457.195 72.6792 457.195 79.5692C457.195 86.4592 458.835 92.4391 462.105 97.7891C465.375 103.139 469.775 107.349 475.295 110.419C480.805 113.489 486.925 115.019 493.645 115.019C500.365 115.019 506.455 113.489 511.935 110.419C517.405 107.349 521.785 103.139 525.055 97.7891ZM508.515 89.2692C507.065 92.0892 505.075 94.2891 502.545 95.8591C500.015 97.4391 497.055 98.2191 493.655 98.2191C490.255 98.2191 487.265 97.4291 484.695 95.8591C482.125 94.2891 480.115 92.0892 478.665 89.2692C477.215 86.4492 476.485 83.2192 476.485 79.5692C476.485 75.9192 477.215 72.7091 478.665 69.9291C480.115 67.1491 482.125 64.9492 484.695 63.3392C487.265 61.7192 490.245 60.9091 493.655 60.9091C497.065 60.9091 500.015 61.7192 502.545 63.3392C505.075 64.9592 507.065 67.1591 508.515 69.9291C509.965 72.7091 510.695 75.9192 510.695 79.5692C510.695 83.2192 509.965 86.4492 508.515 89.2692Z" fill="white"/>
<path d="M826.195 55.8694C823.745 52.1794 820.325 49.2994 815.935 47.2194C811.535 45.1494 806.485 44.1094 800.755 44.1094C795.945 44.1094 791.505 44.8594 787.445 46.3494C783.385 47.8394 779.895 49.9594 776.995 52.6894C774.095 55.4294 771.975 58.6994 770.655 62.5194L785.585 69.6094C786.745 66.6194 788.585 64.2194 791.125 62.3894C793.655 60.5694 796.575 59.6494 799.895 59.6494C803.375 59.6494 806.135 60.5194 808.165 62.2594C810.195 63.9994 811.215 66.1594 811.215 68.7294V70.5394L792.435 73.5794C787.045 74.4094 782.545 75.8194 778.935 77.8094C775.325 79.7994 772.655 82.2694 770.915 85.2094C769.175 88.1594 768.305 91.5294 768.305 95.3494C768.305 99.4094 769.255 102.919 771.165 105.859C773.075 108.799 775.805 111.069 779.375 112.639C782.935 114.209 787.165 114.999 792.065 114.999C792.125 114.999 792.185 114.999 792.245 114.999C798.595 114.959 804.325 111.159 807.055 105.419L809.805 99.6294H812.475V113.509H829.885V68.7294C829.885 63.8394 828.665 59.5494 826.215 55.8594L826.195 55.8694ZM811.205 86.3994C811.205 89.1394 810.565 91.6494 809.275 93.9294C807.985 96.2094 806.185 98.0094 803.865 99.3394C801.545 100.669 798.845 101.329 795.785 101.329C793.465 101.329 791.515 100.749 789.935 99.5894C788.355 98.4294 787.575 96.8094 787.575 94.7394C787.575 92.4994 788.275 90.7794 789.695 89.5794C791.105 88.3794 793.135 87.5294 795.785 87.0294L811.205 84.2794V86.4094V86.3994Z" fill="white"/>
<path d="M739.562 50.6697L739.062 50.4297V50.6697V65.6797V67.1797V69.0897V69.3297V113.52H757.723V69.3297V67.1797V65.6797V59.2997V50.6697H739.562Z" fill="white"/>
<path d="M723.896 61.6197C720.826 56.2697 716.686 52.0297 711.466 48.8797C706.246 45.7297 700.406 44.1597 693.936 44.1597C688.966 44.1597 684.546 45.0897 680.696 46.9597C678.276 48.1297 676.206 49.6497 674.416 51.4297V19.4297H655.766V113.54H673.176V107.05C675.306 109.34 677.886 111.16 680.946 112.48C684.886 114.18 689.176 115.03 693.816 115.03C700.446 115.03 706.376 113.46 711.596 110.31C716.816 107.16 720.936 102.89 723.966 97.5097C726.986 92.1197 728.506 86.1597 728.506 79.6097C728.506 73.0597 726.976 66.9897 723.906 61.6397L723.896 61.6197ZM706.986 89.2797C705.496 92.0997 703.426 94.2997 700.776 95.8697C698.116 97.4497 695.056 98.2297 691.576 98.2297C688.096 98.2297 685.296 97.4397 682.686 95.8697C680.076 94.2997 678.046 92.0997 676.596 89.2797C675.146 86.4597 674.426 83.2297 674.426 79.5797C674.426 75.9297 675.146 72.6997 676.596 69.8797C678.046 67.0597 680.076 64.8697 682.686 63.2897C685.296 61.7197 688.256 60.9297 691.576 60.9297C695.056 60.9297 698.126 61.7397 700.776 63.3497C703.426 64.9697 705.496 67.1597 706.986 69.9397C708.476 72.7197 709.226 75.9297 709.226 79.5797C709.226 83.2297 708.476 86.4597 706.986 89.2797Z" fill="white"/>
<path d="M631.651 47.3491C627.871 45.1891 623.541 44.1191 618.651 44.1191C613.091 44.1191 608.241 45.4491 604.101 48.0991C601.621 49.6891 599.481 51.8091 597.681 54.4391C596.271 52.0991 594.341 50.0891 591.841 48.4091C587.571 45.5491 582.611 44.1191 576.981 44.1191C571.671 44.1191 567.111 45.3591 563.301 47.8491C561.001 49.3491 559.231 51.3492 557.951 53.8392V45.6091H540.531V113.529H559.191V73.8491C559.191 71.1991 559.671 68.9192 560.621 67.0092C561.571 65.0992 562.941 63.6091 564.731 62.5291C566.511 61.4491 568.601 60.9091 571.011 60.9091C573.421 60.9091 575.611 61.4491 577.351 62.5291C579.091 63.6091 580.441 65.0992 581.391 67.0092C582.341 68.9192 582.821 71.1991 582.821 73.8491V113.529H601.481V73.8491C601.481 71.1991 601.961 68.9192 602.911 67.0092C603.861 65.0992 605.231 63.6091 607.021 62.5291C608.801 61.4491 610.901 60.9091 613.301 60.9091C615.701 60.9091 617.901 61.4491 619.641 62.5291C621.381 63.6091 622.731 65.0992 623.681 67.0092C624.631 68.9192 625.111 71.1991 625.111 73.8491V113.529H643.771V69.8691C643.771 64.7291 642.691 60.2291 640.541 56.3691C638.381 52.5091 635.421 49.5091 631.651 47.3491Z" fill="white"/>
<path d="M950.95 54.78C948.09 51.71 944.58 49.3301 940.44 47.6301C936.29 45.9301 931.52 45.0801 926.14 45.0801C919.67 45.0801 913.87 46.6201 908.72 49.6801C903.58 52.7501 899.49 56.9401 896.47 62.2401C893.44 67.5501 891.93 73.6001 891.93 80.4001C891.93 87.2001 893.38 92.9201 896.28 98.3101C899.18 103.7 903.29 107.99 908.59 111.18C913.9 114.37 920.16 115.97 927.37 115.97C932.01 115.97 936.28 115.29 940.18 113.92C944.08 112.55 947.46 110.62 950.32 108.14C953.18 105.65 955.27 102.75 956.6 99.4301L941.67 92.3401C940.34 94.6601 938.5 96.4901 936.13 97.8101C933.77 99.1401 930.93 99.8 927.61 99.8C923.96 99.8 920.85 98.9901 918.28 97.3701C915.71 95.7501 913.8 93.5001 912.56 90.5901C911.92 89.1001 911.5 87.4801 911.27 85.7401H958.83C959.16 84.8301 959.39 83.7301 959.51 82.4401C959.63 81.1601 959.7 79.8501 959.7 78.5201C959.7 73.7901 958.96 69.4201 957.46 65.4001C955.97 61.3801 953.79 57.8301 950.93 54.7701L950.95 54.78ZM911.79 72.0701C912 71.1101 912.26 70.1901 912.58 69.3301C913.74 66.2601 915.48 63.94 917.8 62.36C920.12 60.79 922.9 60.0001 926.13 60.0001C929.36 60.0001 932.24 60.81 934.53 62.42C936.81 64.04 938.4 66.2401 939.32 69.0101C939.64 69.9801 939.84 71.0001 939.95 72.0601H911.78L911.79 72.0701Z" fill="white"/>
<path d="M994.993 64.23C997.523 62.66 1000.4 61.8701 1003.64 61.8701C1007.29 61.8701 1010.5 62.87 1013.28 64.86C1016.06 66.85 1018.02 69.5501 1019.19 72.9501L1035.36 65.98C1034.03 61.75 1031.84 58.08 1028.77 54.97C1025.7 51.86 1022.01 49.4301 1017.7 47.6901C1013.39 45.9501 1008.7 45.0801 1003.64 45.0801C996.842 45.0801 990.703 46.6201 985.233 49.6801C979.763 52.7501 975.442 56.9601 972.292 62.3101C969.142 67.6601 967.562 73.69 967.562 80.41C967.562 87.13 969.153 93.1801 972.353 98.5701C975.543 103.96 979.852 108.21 985.292 111.32C990.722 114.43 996.842 115.98 1003.64 115.98C1008.78 115.98 1013.51 115.09 1017.82 113.31C1022.13 111.53 1025.82 109.06 1028.89 105.91C1031.96 102.76 1034.12 99.1901 1035.36 95.2101L1019.19 88.1201C1018.03 91.5201 1016.08 94.2101 1013.34 96.2001C1010.6 98.1901 1007.37 99.1901 1003.64 99.1901C1000.4 99.1901 997.523 98.4001 994.993 96.8301C992.463 95.2601 990.472 93.0601 989.022 90.2401C987.572 87.4201 986.843 84.19 986.843 80.54C986.843 76.89 987.572 73.6601 989.022 70.8401C990.472 68.0201 992.463 65.8201 994.993 64.2501V64.23Z" fill="white"/>
<path d="M757.503 26.7103V25.0703H739.273V43.6203H757.503V41.9803V26.7103Z" fill="white"/>
<path d="M1064.58 95.8203H1045.92V114.48H1064.58V95.8203Z" fill="white"/>
<path d="M1104.88 57.3301C1102.72 53.4701 1099.72 50.4701 1095.86 48.3101C1092 46.1501 1087.5 45.0801 1082.36 45.0801C1077.63 45.0801 1073.45 45.9601 1069.98 48.0001C1068.12 49.1001 1066.25 50.6701 1064.56 52.4001V43.0901V20.3301H1045.9V77.1701H1064.56V74.8101C1064.56 72.1601 1065.08 69.8801 1066.11 67.9701C1067.15 66.0601 1068.62 64.5701 1070.53 63.4901C1072.44 62.4101 1074.59 61.8701 1077 61.8701C1079.41 61.8701 1081.67 62.4101 1083.53 63.4901C1085.4 64.5701 1086.84 66.0601 1087.88 67.9701C1088.92 69.8801 1089.43 72.1601 1089.43 74.8101V114.49H1108.09V70.8301C1108.09 65.6901 1107.01 61.1901 1104.86 57.3301H1104.88Z" fill="white"/>
<path d="M853.761 45.3099V43.6699H835.531V62.2199H853.761V60.58V45.3099Z" fill="white"/>
<path d="M872.538 43.6691V29.5692V25.1191H853.758V43.6691H854.308H872.538Z" fill="white"/>
<path d="M881.7 99.1185C875.75 99.1185 872.23 96.7685 872.23 88.8685V62.2285H853.75V90.4385C853.75 107.189 861.27 114.629 877.39 114.629C882.24 114.629 887.33 113.769 889.99 112.669V97.7985C888.19 98.4285 885.37 99.1285 881.69 99.1285L881.7 99.1185Z" fill="white"/>
</svg>
